<svg xmlns="http://www.w3.org/2000/svg" width="40" height="24" aria-labelledby="applePay-title" viewBox="0 0 40 24"><path fill="#fff" d="M3 .5h33.99a2.5 2.5 0 0 1 2.5 2.5v17.99a2.5 2.5 0 0 1-2.5 2.5H3a2.5 2.5 0 0 1-2.5-2.5V3A2.5 2.5 0 0 1 3 .5"/><path fill="#ccc" d="M37 1c1.1 0 2 .9 2 2v17.99c0 1.1-.9 2-2 2H3c-1.1 0-2-.9-2-2V3c0-1.1.9-2 2-2h33.99M37 0H3C1.34 0 0 1.34 0 3v17.99C0 22.66 1.34 24 3 24h33.99c1.66 0 3-1.34 3-3V3C40 1.34 38.66 0 37 0"/><path fill="#010101" d="M11.29 7.59c.33-.41.55-.97.49-1.53-.48.02-1.07.32-1.41.73-.31.35-.58.93-.51 1.47.54.05 1.08-.27 1.42-.67m.5.78c-.79-.05-1.46.45-1.83.45S9 8.4 8.38 8.41c-.81.01-1.56.47-1.97 1.2-.85 1.46-.22 3.62.6 4.8.4.59.88 1.23 1.51 1.21.6-.02.83-.39 1.56-.39s.94.39 1.57.38c.66-.01 1.07-.59 1.47-1.17.46-.67.65-1.32.66-1.35-.01-.01-1.27-.49-1.28-1.94-.01-1.21.99-1.79 1.03-1.82-.56-.83-1.44-.93-1.75-.95m6.85-1.65c1.71 0 2.9 1.18 2.9 2.89s-1.22 2.91-2.94 2.91H16.7v3.01h-1.37V6.73zm-1.94 4.66h1.57c1.19 0 1.87-.64 1.87-1.75s-.68-1.75-1.86-1.75h-1.58zm5.2 2.33c0-1.12.86-1.81 2.39-1.9l1.76-.1v-.49c0-.71-.48-1.14-1.29-1.14-.76 0-1.24.37-1.36.94h-1.25c.07-1.16 1.06-2.02 2.65-2.02s2.55.82 2.55 2.11v4.43h-1.26v-1.06h-.03c-.37.71-1.18 1.17-2.03 1.17-1.26 0-2.14-.78-2.14-1.94Zm4.14-.58v-.51l-1.58.1c-.79.06-1.23.4-1.23.95s.46.93 1.17.93c.92 0 1.64-.64 1.64-1.47m2.51 4.77v-1.07c.1.02.32.02.43.02.61 0 .94-.26 1.14-.92 0-.01.12-.39.12-.4l-2.32-6.43h1.43l1.62 5.23h.02l1.62-5.23h1.39l-2.41 6.76c-.55 1.56-1.18 2.06-2.52 2.06-.11 0-.44-.01-.54-.03Z"/></svg>
