<svg xmlns="http://www.w3.org/2000/svg" width="40" height="24" aria-labelledby="mastercard-title" viewBox="0 0 40 24"><path fill="#fff" d="M3 .5h33.99a2.5 2.5 0 0 1 2.5 2.5v17.99a2.5 2.5 0 0 1-2.5 2.5H3a2.5 2.5 0 0 1-2.5-2.5V3A2.5 2.5 0 0 1 3 .5"/><path fill="#ccc" d="M37 1c1.1 0 2 .9 2 2v17.99c0 1.1-.9 2-2 2H3c-1.1 0-2-.9-2-2V3c0-1.1.9-2 2-2h33.99M37 0H3C1.34 0 0 1.34 0 3v17.99C0 22.66 1.34 24 3 24h33.99c1.66 0 3-1.34 3-3V3C40 1.34 38.66 0 37 0"/><path fill="#f26122" d="M17.38 7.28h5.25v9.43h-5.25z"/><path fill="#ea1d25" d="M17.71 12c0-1.83.85-3.58 2.28-4.71a5.993 5.993 0 1 0-7.4 9.43 5.966 5.966 0 0 0 7.41 0 5.99 5.99 0 0 1-2.3-4.71Z"/><path fill="#f69e1e" d="M29.71 12c0 3.32-2.68 6-6 6-1.35 0-2.65-.45-3.7-1.28a6.006 6.006 0 0 0 0-9.43c2.6-2.05 6.38-1.6 8.41 1.02a5.96 5.96 0 0 1 1.28 3.7Z"/></svg>
