<svg xmlns="http://www.w3.org/2000/svg" width="40" height="24" aria-labelledby="paypal-title" viewBox="0 0 40 24"><path fill="#fff" d="M3 .5h33.99a2.5 2.5 0 0 1 2.5 2.5v17.99a2.5 2.5 0 0 1-2.5 2.5H3a2.5 2.5 0 0 1-2.5-2.5V3A2.5 2.5 0 0 1 3 .5"/><path fill="#ccc" d="M37 1c1.1 0 2 .9 2 2v17.99c0 1.1-.9 2-2 2H3c-1.1 0-2-.9-2-2V3c0-1.1.9-2 2-2h33.99M37 0H3C1.34 0 0 1.34 0 3v17.99C0 22.66 1.34 24 3 24h33.99c1.66 0 3-1.34 3-3V3C40 1.34 38.66 0 37 0"/><path fill="#253b80" d="M16.45 9.77h-1.49c-.06 0-.11.04-.12.1l-.67 4.23c0 .06.04.11.09.12h.81c.05 0 .1-.04.11-.1l.19-1.24c0-.05.06-.1.12-.1h.72c.84 0 1.55-.61 1.68-1.44.13-.84-.52-1.57-1.45-1.57Zm-.32 2.07h-.59l.18-1.13h.58c.47 0 .63.28.58.59-.04.31-.29.53-.74.53Zm5.22-.73h-.77c-.06 0-.1.03-.11.1l-.03.16s-.32-.36-.93-.36c-.2 0-.43.04-.69.15-.59.24-.88.76-.99 1.13 0 0-.39 1.14.48 1.76 0 0 .81.59 1.71-.03v.1c-.02.06.02.11.08.12h.77c.05 0 .1-.04.11-.1l.45-2.9c0-.06-.03-.11-.09-.12Zm-1.97 2.32c-.08 0-.16 0-.24-.03a.65.65 0 0 1-.45-.75c.07-.41.41-.72.85-.72.09 0 .17 0 .24.03.32.1.51.41.45.75-.07.41-.41.72-.85.72m2.41-2.32c-.06 0-.1.06-.08.11l.82 2.55-.74 1.2c-.04.06 0 .13.07.13h.88c.05 0 .1-.03.13-.07l2.3-3.8c.04-.06 0-.13-.08-.13h-.88c-.05 0-.1.03-.13.07l-.91 1.53-.46-1.52s-.06-.08-.11-.08h-.82ZM7.09 8.29c-.11 0-.19.08-.21.18L6 14.03c-.02.11.06.2.17.2h1.3l.32-2.05.35-2.23c.02-.1.11-.18.21-.18h1.86c.34 0 .65.08.91.22.02-.93-.75-1.7-1.81-1.7H7.08Z"/><path fill="#396fb6" d="M27.26 9.77h-1.5c-.05 0-.1.04-.11.1l-.67 4.23c0 .06.04.11.09.12h.81c.05 0 .1-.04.11-.1l.19-1.24c0-.05.06-.1.11-.1h.73c.84 0 1.55-.61 1.68-1.44.13-.84-.52-1.57-1.45-1.57Zm-.31 2.07h-.59l.18-1.13h.58c.47 0 .63.28.58.59-.04.31-.29.53-.74.53Zm5.21-.73h-.77c-.06 0-.1.03-.11.1l-.03.16s-.33-.36-.93-.36c-.2 0-.43.04-.69.15-.59.24-.88.76-1 1.13 0 0-.38 1.14.49 1.76 0 0 .8.59 1.71-.03v.1c-.03.06.02.11.08.12h.77c.05 0 .1-.04.11-.1l.46-2.9c0-.06-.04-.11-.09-.12Zm-1.97 2.32c-.09 0-.17 0-.24-.03a.67.67 0 0 1-.46-.75c.07-.41.41-.72.85-.72.09 0 .17 0 .24.03.32.1.51.41.46.75-.07.41-.41.72-.85.72m2.91-3.66c-.06 0-.11.04-.12.1l-.67 4.23c0 .06.03.11.09.12h.81c.06 0 .11-.04.12-.1L34 9.89c0-.06-.03-.11-.09-.12zm-21.97.22c0 .08 0 .15-.02.23A2.105 2.105 0 0 1 9.04 12H8.01c-.11 0-.19.08-.21.18l-.32 2.05-.2 1.28c-.02.09.05.18.14.2h1.15c.11 0 .19-.08.21-.18l.29-1.87c.02-.1.11-.18.21-.18h.66c1.04 0 1.91-.76 2.07-1.78.11-.73-.25-1.39-.88-1.72Z"/><path fill="#212960" d="M8.36 9.77c-.11 0-.19.08-.21.18l-.35 2.23c.02-.1.11-.18.21-.18h1.03c1.04 0 1.91-.76 2.07-1.78.01-.08.02-.15.02-.23-.26-.14-.57-.22-.91-.22z"/></svg>
