<?xml version="1.0" encoding="UTF-8"?>
<svg xmlns="http://www.w3.org/2000/svg" viewBox="0 0 512 512" role="img" aria-label="Kandie Gang">
  <rect width="512" height="512" rx="112" fill="#fff"/>
  <path
    fill="#46519c"
    d="M88.2 111.7c21.8-64 77-93.9 142.1-75.3 48 13.6 86.4 42.5 118 80.7 5.9 7.1 10.7 15 15.8 22.4 11.7-10 22.7-19.8 34.1-29.2 23.2-19.1 50.1-26.2 79.7-23.1 43 4.5 77.6 23.3 98 62.6 15.1 29.3 16.4 60.9 10.6 93.1-7.9 43.3-30 79.3-56.1 113.8-34.8 45.9-79.5 81.3-125.1 115.4-24.6 18.3-49.8 35.8-75.1 52.9-12.8 8.8-25.4 8.9-39.4-1-37.8-26.5-71.1-57.3-100.4-93.2-40-49.1-72-102.3-94.4-161.7-19.5-51.9-26.3-103.8-7.8-157.4Z"
    transform="translate(-38 -24) scale(.92)"
  />
</svg>
