<svg width="253" height="145" viewBox="0 0 253 145" fill="none" xmlns="http://www.w3.org/2000/svg">
<g clip-path="url(#clip0_493_2875)">
<g clip-path="url(#clip1_493_2875)">
<path d="M149.752 19.3542C148.349 18.8756 146.861 18.6597 145.702 17.9089C141.784 15.3654 142.123 9.59321 146.324 7.07786C149.818 4.98488 153.689 3.8586 157.691 3.20161C163.841 2.17858 169.841 2.58216 175.219 5.94221C182.405 10.4285 185.409 17.2331 184.797 25.483C183.846 38.2662 174.333 48.5998 160.62 51.2653C157.983 51.7815 155.638 51.2747 153.086 49.8856C152.926 49.8011 152.69 50.796 152.097 51.04C149.526 52.3259 147.04 52.11 144.826 50.3173C142.67 48.5716 142.057 46.1314 142.717 43.5597C144.224 37.6468 145.872 31.7714 147.539 25.9054C148.189 23.6059 149.046 21.3721 149.733 19.3542H149.752ZM156.919 38.9608C158.087 38.7355 158.982 38.6135 159.858 38.3976C167.091 36.5956 172.327 29.7629 171.837 22.7518C171.593 19.1665 168.89 16.1537 165.443 15.6094C164.586 15.478 163.907 15.4311 163.879 16.6606C163.86 17.4208 163.54 18.181 163.286 18.9225C161.525 24.1127 159.716 29.2936 157.983 34.4932C157.522 35.8729 157.296 37.3277 156.91 38.9608H156.919Z" fill="#FDF9F0"/>
<path d="M122.486 34.3615C124.181 29.1056 125.82 24.0561 127.431 18.9879C128.354 16.0971 130.068 14.0886 133.232 13.6475C137.197 13.1031 140.927 16.7823 140.098 20.7148C139.448 23.8121 138.356 26.8343 137.395 29.8658C135.05 37.2617 132.686 44.6575 130.275 52.0252C129.804 53.4706 129.135 54.8597 128.41 56.2018C126.828 59.1583 124.473 61.0448 120.923 60.6975C117.494 60.369 115.46 58.1634 114.528 55.0755C113.143 50.486 112.032 45.8213 110.808 41.1848C110.676 40.678 110.563 40.1712 110.365 39.3171C109.743 41.1098 109.188 42.5927 108.707 44.1038C107.53 47.8486 106.372 51.5935 105.232 55.3477C104.328 58.3323 102.642 60.5473 99.3458 60.9415C94.8439 61.4671 91.2933 57.4313 92.5176 53.0389C93.8079 48.3836 95.2489 43.7471 96.8782 39.1951C99.2893 32.4656 101.87 25.8018 104.479 19.1474C105.307 17.0357 106.73 15.2712 108.877 14.2951C112.767 12.5212 117.438 14.7456 118.653 19.0911C119.924 23.6244 120.97 28.2139 122.109 32.7847C122.222 33.2446 122.326 33.7139 122.477 34.3709L122.486 34.3615Z" fill="#FDF9F0"/>
<path d="M66.825 87.0895C62.9447 86.7423 60.9858 85.372 60.157 82.5657C59.1304 79.1118 61.3625 75.0197 64.9131 74.7099C68.718 74.3814 72.6265 74.4565 76.4221 74.8789C79.9256 75.2731 81.9034 78.0043 82.1483 81.5427C82.3461 84.3583 81.489 86.9112 80.2741 89.3421C76.7517 96.3813 71.5529 101.506 63.5098 102.942C53.3571 104.753 45.8132 99.7883 43.4021 89.7926C42.1495 84.593 42.8935 79.4497 44.4193 74.4096C46.5007 67.5112 50.1926 61.6639 56.239 57.5624C62.2666 53.4703 68.7557 52.3816 75.5085 55.6759C80.048 57.8909 82.3366 62.1989 81.8657 66.9199C81.5455 70.0922 79.1251 72.4386 75.8852 72.7014C72.975 72.9454 70.5357 71.181 69.6975 68.14C69.349 66.8636 68.6144 66.3192 67.3147 66.46C65.045 66.704 63.2744 67.9054 61.7957 69.4915C57.9625 73.5931 56.0695 78.5205 55.8529 84.0862C55.8152 85.1561 56.013 86.2636 56.2767 87.3148C56.9171 89.8114 58.4617 90.9001 61.0234 90.6092C63.3874 90.337 65.2898 89.1732 66.825 87.0895Z" fill="#FDF9F0"/>
<path d="M200.082 94.8977C194.393 94.1187 190.343 92.983 189.533 91.3405C187.942 88.1119 189.731 84.6204 193.225 83.9259C196.974 83.1844 199.752 83.9447 204.395 84.8269C209.085 86.0564 210.884 87.1921 211.515 90.6835C212.014 93.4617 212.005 95.1699 209.961 98.8772C205.949 105.419 202.917 110.337 195.081 112.636C187.895 114.485 175.613 110.891 172.308 102.115C170.424 97.1127 171.196 90.0265 172.157 84.8551C173.475 77.7783 177.177 71.1521 182.743 66.4218C188.281 61.7008 194.6 61.316 201.664 63.8501C206.42 65.5583 209.161 69.5941 209.208 74.3338C209.236 77.5155 207.079 80.1153 203.896 80.7348C201.033 81.2885 198.405 79.8056 197.247 76.8679C196.757 75.6384 195.975 75.1785 194.695 75.4601C192.472 75.9481 190.842 77.3372 189.533 79.0735C186.171 83.5693 184.824 88.675 185.22 94.2313C185.295 95.3013 185.615 96.3806 186.002 97.3942C186.906 99.8063 189.072 101.167 191.587 100.595C196.23 99.2714 198 97.3379 200.063 94.8977H200.082Z" fill="#FDF9F0"/>
<path d="M221.018 33.5249C223.693 33.2527 226.208 32.9148 228.722 32.7646C230.286 32.6708 231.925 32.6051 233.422 32.9617C236.36 33.6563 238.178 36.4907 237.877 39.4003C237.538 42.6571 235.023 45.0879 231.623 45.1536C227.168 45.2381 222.808 45.7637 218.532 47.0307C217.647 47.2935 217.063 47.6033 217.025 48.6638C216.987 49.7338 216.724 50.7944 216.498 52.2116C218.4 52.0051 220.105 51.977 221.734 51.6203C225.228 50.8413 228.713 49.9684 232.151 48.9736C234.543 48.279 236.784 48.0725 238.885 49.6869C242.821 52.7184 241.974 58.9129 237.18 60.6117C233.318 61.982 229.306 62.9957 225.285 63.784C221.913 64.441 218.428 64.7977 214.991 64.8165C209.641 64.8446 205.328 61.7098 204.311 57.1766C203.821 54.9897 203.529 52.634 203.783 50.4283C204.782 41.803 207.324 33.5624 210.432 25.472C212.457 20.2067 216.62 18.0668 221.772 17.147C227.442 16.1427 233.158 15.6734 238.922 15.8048C242.699 15.8893 245.327 18.5454 245.317 22.1871C245.317 25.5753 242.454 28.2877 238.8 28.3909C235.729 28.4754 232.659 28.5036 229.598 28.7007C227.856 28.8133 226.142 29.2638 224.409 29.4797C222.987 29.6486 222.083 30.3431 221.668 31.7041C221.489 32.3047 221.235 32.8866 221 33.5343L221.018 33.5249Z" fill="#FDF9F0"/>
<path d="M20.2337 48.8065C18.9246 53.0019 17.7756 56.8875 16.4853 60.7262C16.0332 62.059 15.4399 63.448 14.5451 64.5086C12.5391 66.9019 9.58179 67.2774 6.81286 65.7757C4.40182 64.4711 2.97027 61.4301 3.78964 58.7177C4.94807 54.879 6.35137 51.1154 7.59456 47.3048C9.96793 40.0497 12.3036 32.7853 14.6393 25.5302C14.8842 24.7888 15.016 24.0097 15.2515 23.2589C16.3534 19.6454 19.9794 17.6745 23.4076 18.8195C26.8923 19.9833 28.597 23.5874 27.382 27.1821C26.6192 29.444 25.894 31.7153 25.0558 34.2776C27.9377 32.8604 30.0191 31.002 31.8085 28.8715C33.5226 26.8348 35.1143 24.6855 36.6024 22.4799C39.522 18.1437 45.3612 18.2658 47.7817 22.8272C48.9401 25.0046 48.7235 27.2196 47.4144 29.3032C44.2876 34.2776 40.3885 38.5668 35.783 42.2178C34.7941 43.0062 33.7769 43.7571 32.5432 44.6956C34.9636 48.0932 37.3747 51.4063 39.7009 54.7664C40.6616 56.1461 41.82 57.5445 42.2344 59.1119C43.0349 62.1622 41.4527 65.0061 38.7497 66.2919C36.122 67.5402 32.901 66.8644 30.9986 64.2834C27.6363 59.7126 24.4812 54.9822 21.2414 50.327C20.9683 49.9422 20.714 49.5386 20.2243 48.8159L20.2337 48.8065Z" fill="#FDF9F0"/>
<path d="M75.3202 39.7582C71.5058 39.899 67.9175 40.0022 64.3292 40.1993C63.9337 40.2181 63.4157 40.6686 63.1991 41.0534C62.0312 43.1464 60.9199 45.2769 59.8462 47.4168C58.0756 50.9458 54.6474 52.2598 51.3134 50.6643C48.0547 49.1062 46.8492 45.2957 48.5256 41.8418C53.6397 31.3111 59.6578 21.3343 67.1358 12.3053C69.1513 9.86504 71.5058 7.6125 74.0487 5.71661C80.3118 1.05196 87.6579 3.98027 88.8163 11.7046C89.4568 15.9469 89.4945 20.33 89.3249 24.6286C89.0518 31.4332 88.3737 38.2189 87.8651 45.0141C87.4884 50.0354 82.3273 52.8511 78.0891 50.3451C75.6781 48.9185 74.5573 46.0559 75.0471 42.6583C75.1789 41.7573 75.226 40.8469 75.339 39.7676L75.3202 39.7582ZM76.4786 27.0313C76.601 24.7694 76.7141 22.6388 76.8271 20.5083C76.7141 20.4708 76.601 20.4238 76.488 20.3863C74.8681 22.6107 73.2482 24.8445 71.4588 27.2941C73.3518 27.1909 74.8681 27.1158 76.4786 27.0313Z" fill="#FDF9F0"/>
<path d="M182.913 49.2944C183.214 48.1587 183.638 46.291 184.194 44.4702C187.217 34.4088 190.278 24.3568 193.311 14.2955C194.139 11.5455 195.693 9.51819 198.651 8.94567C203.143 8.06343 207.118 12.1274 205.95 16.6043C204.688 21.4473 203.077 26.2058 201.646 31.0112C199.621 37.8252 197.624 44.6391 195.599 51.4531C194.789 54.1843 193.094 56.0802 190.146 56.4462C186.03 56.9624 182.96 54.1937 182.923 49.2944H182.913Z" fill="#FDF9F0"/>
<path d="M153.415 78.8386C154.969 73.5452 156.467 68.4488 157.945 63.343C158.784 60.4241 160.912 59.6075 164.067 59.0819C168.013 58.4249 171.922 62.0759 171.206 66.0179C170.641 69.1339 170.255 70.8327 169.37 73.883C167.222 81.3352 166.28 86.5067 164.067 93.9494C163.634 95.4042 161.439 99.8718 160.761 101.233C159.254 104.236 156.128 105.437 152.568 105.193C149.13 104.959 147.039 102.8 146.031 99.7404C144.525 95.1883 143.281 90.5519 141.935 85.9529C141.784 85.4555 141.661 84.9487 141.435 84.0946C140.861 85.906 140.343 87.4077 139.91 88.9282C138.827 92.7012 137.772 96.4742 136.736 100.257C135.907 103.269 134.287 105.522 131 106.001C126.517 106.648 122.646 101.045 123.748 96.6243C124.087 90.4111 125.246 87.8676 126.169 83.2405C128.391 76.4547 129.079 72.3813 131.509 65.6612C132.281 63.5307 134.579 60.0299 136.689 58.9881C140.522 57.111 144.967 58.256 147.519 62.8831C150.307 67.8012 151.729 72.7098 153.001 77.2431C153.133 77.703 153.236 78.1629 153.406 78.8199L153.415 78.8386Z" fill="#FDF9F0"/>
<path d="M105.816 100.247C101.663 99.4869 99.5156 99.8623 95.9462 100.191C95.5506 100.228 95.0514 100.688 94.8537 101.082C93.7706 103.222 92.6027 104.724 91.6044 106.902C89.9657 110.487 86.5469 112.157 83.1469 110.675C79.8318 109.229 77.8257 106.451 79.3797 102.941C84.1076 92.2318 87.5075 84.836 94.6465 75.5442C96.5772 73.0383 99.4968 67.9982 101.964 66.0178C108.058 61.1279 116.845 64.0281 118.286 71.7149C119.077 75.929 119.783 78.6696 119.765 82.9682C120.009 89.6696 120.028 96.6149 118.531 105.034C118.333 110.064 112.767 111.228 108.764 109.642C106.306 108.309 105.27 106.564 105.628 103.147C105.722 102.246 105.741 101.336 105.816 100.247ZM107.417 88.5151C107.455 86.2532 106.598 83.0903 106.636 80.9597C106.523 80.9222 106.523 79.7959 106.41 79.7584C103.499 82.8744 101.446 85.8121 99.7511 88.3274C101.644 88.1585 105.816 88.6559 107.427 88.5151H107.417Z" fill="#FDF9F0"/>
</g>
<path d="M73.7614 144.597C73.101 144.321 72.5589 143.937 72.1154 143.416C71.6818 142.924 71.3565 142.334 71.1397 141.645C70.9229 140.956 70.8145 140.199 70.8145 139.372C70.8145 138.821 70.8637 138.3 70.9623 137.808C71.0609 137.316 71.2087 136.863 71.396 136.45C71.5832 136.037 71.8296 135.663 72.1154 135.338C72.5688 134.826 73.1207 134.433 73.7712 134.157C74.4217 133.882 75.1707 133.754 75.9986 133.754C76.7773 133.754 77.4967 133.901 78.1472 134.197C78.7977 134.492 79.3299 134.905 79.734 135.436C80.1381 135.968 80.3746 136.548 80.4338 137.198C80.4436 137.296 80.4239 137.385 80.3648 137.444C80.3057 137.503 80.2367 137.532 80.1381 137.532H79.2412C79.1525 137.532 79.0737 137.503 79.0145 137.444C78.9554 137.385 78.916 137.316 78.8864 137.237C78.8174 136.893 78.6499 136.558 78.4035 136.253C78.1472 135.948 77.8121 135.702 77.3982 135.505C76.9744 135.318 76.5111 135.22 75.9986 135.22C75.3876 135.22 74.8652 135.318 74.402 135.515C73.9486 135.712 73.5544 135.987 73.239 136.361C73.0419 136.607 72.8842 136.883 72.7561 137.188C72.6279 137.493 72.5294 137.837 72.4604 138.201C72.3914 138.575 72.3618 138.959 72.3618 139.372C72.3618 140.002 72.4407 140.563 72.5885 141.074C72.7363 141.586 72.9532 142.019 73.239 142.393C73.5445 142.767 73.9289 143.042 74.3921 143.239C74.8554 143.436 75.3876 143.534 75.9986 143.534C76.5111 143.534 76.9842 143.436 77.3982 143.249C77.822 143.062 78.1571 142.806 78.4035 142.501C78.6499 142.196 78.8174 141.861 78.8864 141.517C78.916 141.438 78.9653 141.369 79.0145 141.31C79.0737 141.251 79.1427 141.222 79.2412 141.222H80.1381C80.2268 141.222 80.3057 141.251 80.3648 141.31C80.4239 141.369 80.4436 141.458 80.4338 141.556C80.3746 142.206 80.1381 142.786 79.734 143.318C79.3299 143.849 78.7977 144.262 78.1472 144.557C77.4967 144.852 76.7773 145 75.9986 145C75.1707 145 74.4217 144.862 73.7614 144.597Z" fill="#FDF9F0"/>
<path d="M85.2533 144.656C85.1941 144.587 85.1646 144.518 85.1646 144.43V140.799L81.3306 134.443C81.2518 134.325 81.2321 134.217 81.2912 134.118C81.3504 134.02 81.4292 133.981 81.5475 133.981H82.6218C82.6809 133.981 82.74 134 82.7795 134.03C82.8189 134.069 82.8682 134.128 82.9174 134.207L85.7954 138.989C85.7954 138.989 85.8446 139.048 85.8939 139.048C85.9432 139.048 85.9826 139.028 86.0122 138.989L88.8507 134.207C88.9098 134.118 88.9591 134.049 88.9985 134.02C89.0379 133.99 89.0872 133.971 89.1463 133.971H90.2206C90.329 133.971 90.4178 134.02 90.4769 134.108C90.536 134.197 90.5262 134.305 90.4572 134.433L86.6528 140.77V144.41C86.6528 144.489 86.6232 144.567 86.5542 144.636C86.4853 144.705 86.4064 144.735 86.3177 144.735H85.4997C85.411 144.735 85.3321 144.705 85.273 144.636L85.2533 144.656Z" fill="#FDF9F0"/>
<path d="M94.1725 144.597C93.5122 144.321 92.9701 143.937 92.5266 143.416C92.0929 142.924 91.7677 142.334 91.5508 141.645C91.334 140.956 91.2256 140.199 91.2256 139.372C91.2256 138.821 91.2749 138.3 91.3734 137.808C91.472 137.316 91.6198 136.863 91.8071 136.45C91.9943 136.037 92.2407 135.663 92.5266 135.338C92.9799 134.826 93.5319 134.433 94.1823 134.157C94.8328 133.882 95.5819 133.754 96.4098 133.754C97.1884 133.754 97.9079 133.901 98.5583 134.197C99.2088 134.492 99.7411 134.905 100.145 135.436C100.549 135.968 100.786 136.548 100.845 137.198C100.855 137.296 100.835 137.385 100.776 137.444C100.717 137.503 100.648 137.532 100.549 137.532H99.6524C99.5636 137.532 99.4848 137.503 99.4257 137.444C99.3665 137.385 99.3271 137.316 99.2975 137.237C99.2285 136.893 99.061 136.558 98.8146 136.253C98.5584 135.948 98.2232 135.702 97.8093 135.505C97.3855 135.318 96.9223 135.22 96.4098 135.22C95.7987 135.22 95.2763 135.318 94.8131 135.515C94.3597 135.712 93.9655 135.987 93.6501 136.361C93.453 136.607 93.2953 136.883 93.1672 137.188C93.0391 137.493 92.9405 137.837 92.8715 138.201C92.8025 138.575 92.773 138.959 92.773 139.372C92.773 140.002 92.8518 140.563 92.9996 141.074C93.1475 141.586 93.3643 142.019 93.6501 142.393C93.9557 142.767 94.34 143.042 94.8033 143.239C95.2665 143.436 95.7987 143.534 96.4098 143.534C96.9223 143.534 97.3954 143.436 97.8093 143.249C98.2331 143.062 98.5682 142.806 98.8146 142.501C99.061 142.196 99.2285 141.861 99.2975 141.517C99.3271 141.438 99.3764 141.369 99.4257 141.31C99.4848 141.251 99.5538 141.222 99.6524 141.222H100.549C100.638 141.222 100.717 141.251 100.776 141.31C100.835 141.369 100.855 141.458 100.845 141.556C100.786 142.206 100.549 142.786 100.145 143.318C99.7411 143.849 99.2088 144.262 98.5583 144.557C97.9079 144.852 97.1884 145 96.4098 145C95.5819 145 94.8328 144.862 94.1725 144.597Z" fill="#FDF9F0"/>
<path d="M103.141 144.666C103.082 144.607 103.053 144.528 103.053 144.449V134.295C103.053 134.217 103.082 134.138 103.141 134.079C103.201 134.02 103.279 133.99 103.358 133.99H104.226C104.304 133.99 104.383 134.02 104.442 134.079C104.502 134.138 104.531 134.217 104.531 134.295V143.121C104.531 143.219 104.58 143.278 104.689 143.278H109.459C109.538 143.278 109.617 143.308 109.676 143.367C109.735 143.426 109.765 143.495 109.765 143.583V144.449C109.765 144.528 109.735 144.607 109.676 144.666C109.617 144.725 109.548 144.754 109.459 144.754H103.358C103.279 144.754 103.201 144.725 103.141 144.666Z" fill="#FDF9F0"/>
<path d="M111.351 144.656C111.292 144.587 111.263 144.518 111.263 144.43V134.315C111.263 134.236 111.292 134.158 111.351 134.089C111.411 134.02 111.489 133.99 111.588 133.99H112.406C112.495 133.99 112.574 134.02 112.643 134.089C112.712 134.158 112.741 134.226 112.741 134.315V144.43C112.741 144.508 112.712 144.587 112.643 144.656C112.574 144.725 112.495 144.754 112.406 144.754H111.588C111.499 144.754 111.42 144.725 111.351 144.656Z" fill="#FDF9F0"/>
<path d="M115.876 144.666C115.817 144.607 115.787 144.528 115.787 144.449V134.295C115.787 134.217 115.817 134.138 115.876 134.079C115.935 134.02 116.014 133.99 116.093 133.99H117.325C117.423 133.99 117.502 134.01 117.561 134.049C117.62 134.089 117.679 134.167 117.758 134.276L122.735 142.058C122.775 142.108 122.824 142.127 122.883 142.117C122.942 142.117 122.972 142.068 122.972 141.999V134.295C122.972 134.217 123.002 134.138 123.061 134.079C123.12 134.02 123.189 133.99 123.278 133.99H124.145C124.224 133.99 124.303 134.02 124.362 134.079C124.421 134.138 124.45 134.217 124.45 134.295V144.449C124.45 144.528 124.421 144.607 124.362 144.666C124.303 144.725 124.224 144.754 124.145 144.754H122.893C122.804 144.754 122.726 144.735 122.676 144.695C122.627 144.656 122.558 144.577 122.489 144.469L117.502 136.686C117.463 136.637 117.413 136.617 117.354 136.627C117.295 136.627 117.265 136.676 117.265 136.745V144.449C117.265 144.528 117.236 144.607 117.177 144.666C117.118 144.725 117.039 144.754 116.96 144.754H116.093C116.014 144.754 115.935 144.725 115.876 144.666Z" fill="#FDF9F0"/>
<path d="M129.831 144.587C129.171 144.311 128.609 143.918 128.155 143.416C127.722 142.924 127.397 142.334 127.18 141.645C126.963 140.956 126.854 140.199 126.854 139.372C126.854 138.821 126.904 138.3 127.002 137.808C127.101 137.316 127.249 136.863 127.436 136.45C127.623 136.037 127.87 135.663 128.155 135.338C128.609 134.836 129.161 134.443 129.821 134.167C130.481 133.892 131.221 133.754 132.058 133.754C132.896 133.754 133.675 133.921 134.345 134.246C135.015 134.571 135.547 134.994 135.922 135.495C136.296 135.997 136.503 136.509 136.533 137.011C136.543 137.109 136.523 137.198 136.464 137.257C136.405 137.316 136.336 137.345 136.237 137.345H135.34C135.252 137.345 135.173 137.316 135.114 137.257C135.055 137.198 135.005 137.129 134.966 137.05C134.917 136.725 134.759 136.42 134.493 136.145C134.227 135.869 133.892 135.643 133.468 135.476C133.044 135.308 132.571 135.22 132.039 135.22C131.447 135.22 130.915 135.318 130.442 135.515C129.979 135.712 129.585 135.987 129.279 136.361C129.072 136.607 128.905 136.883 128.776 137.198C128.648 137.512 128.55 137.847 128.481 138.211C128.412 138.575 128.382 138.959 128.382 139.372C128.382 139.992 128.461 140.553 128.609 141.084C128.757 141.615 128.983 142.048 129.269 142.403C129.585 142.796 129.979 143.081 130.442 143.278C130.905 143.475 131.447 143.573 132.058 143.573C132.669 143.573 133.241 143.455 133.704 143.219C134.168 142.983 134.522 142.649 134.769 142.225C135.015 141.802 135.143 141.31 135.143 140.759V140.7C135.143 140.641 135.133 140.592 135.104 140.572C135.074 140.553 135.035 140.533 134.976 140.533H132.019C131.94 140.533 131.861 140.504 131.792 140.435C131.723 140.366 131.694 140.297 131.694 140.208V139.441C131.694 139.362 131.723 139.284 131.792 139.215C131.861 139.146 131.93 139.116 132.019 139.116H136.375C136.464 139.116 136.543 139.146 136.612 139.215C136.681 139.284 136.71 139.352 136.71 139.441V140.267C136.71 141.242 136.513 142.088 136.129 142.796C135.735 143.505 135.193 144.056 134.493 144.439C133.793 144.823 132.985 145.01 132.058 145.01C131.221 145.01 130.462 144.872 129.801 144.597L129.831 144.587Z" fill="#FDF9F0"/>
<path d="M145.857 144.597C145.197 144.321 144.655 143.937 144.211 143.416C143.777 142.924 143.452 142.334 143.235 141.645C143.019 140.956 142.91 140.199 142.91 139.372C142.91 138.821 142.959 138.3 143.058 137.808C143.157 137.316 143.304 136.863 143.492 136.45C143.679 136.037 143.925 135.663 144.211 135.338C144.665 134.826 145.216 134.433 145.867 134.157C146.517 133.882 147.266 133.754 148.094 133.754C148.873 133.754 149.592 133.901 150.243 134.197C150.893 134.492 151.426 134.905 151.83 135.436C152.234 135.968 152.47 136.548 152.529 137.198C152.539 137.296 152.52 137.385 152.46 137.444C152.401 137.503 152.332 137.532 152.234 137.532H151.337C151.248 137.532 151.169 137.503 151.11 137.444C151.051 137.385 151.012 137.316 150.982 137.237C150.913 136.893 150.746 136.558 150.499 136.253C150.243 135.948 149.908 135.702 149.494 135.505C149.07 135.318 148.607 135.22 148.094 135.22C147.483 135.22 146.961 135.318 146.498 135.515C146.044 135.712 145.65 135.987 145.335 136.361C145.138 136.607 144.98 136.883 144.852 137.188C144.724 137.493 144.625 137.837 144.556 138.201C144.487 138.575 144.458 138.959 144.458 139.372C144.458 140.002 144.536 140.563 144.684 141.074C144.832 141.586 145.049 142.019 145.335 142.393C145.64 142.767 146.025 143.042 146.488 143.239C146.951 143.436 147.483 143.534 148.094 143.534C148.607 143.534 149.08 143.436 149.494 143.249C149.918 143.062 150.253 142.806 150.499 142.501C150.746 142.196 150.913 141.861 150.982 141.517C151.012 141.438 151.061 141.369 151.11 141.31C151.169 141.251 151.238 141.222 151.337 141.222H152.234C152.323 141.222 152.401 141.251 152.46 141.31C152.52 141.369 152.539 141.458 152.529 141.556C152.47 142.206 152.234 142.786 151.83 143.318C151.426 143.849 150.893 144.262 150.243 144.557C149.592 144.852 148.873 145 148.094 145C147.266 145 146.517 144.862 145.857 144.597Z" fill="#FDF9F0"/>
<path d="M154.826 144.666C154.767 144.607 154.737 144.528 154.737 144.449V134.295C154.737 134.217 154.767 134.138 154.826 134.079C154.885 134.02 154.964 133.99 155.043 133.99H155.91C155.989 133.99 156.068 134.02 156.127 134.079C156.186 134.138 156.216 134.217 156.216 134.295V143.121C156.216 143.219 156.265 143.278 156.373 143.278H161.144C161.222 143.278 161.301 143.308 161.36 143.367C161.42 143.426 161.449 143.495 161.449 143.583V144.449C161.449 144.528 161.42 144.607 161.36 144.666C161.301 144.725 161.232 144.754 161.144 144.754H155.043C154.964 144.754 154.885 144.725 154.826 144.666Z" fill="#FDF9F0"/>
<path d="M164.643 144.508C164.002 144.184 163.499 143.702 163.145 143.082C162.78 142.462 162.603 141.714 162.603 140.829V134.305C162.603 134.226 162.632 134.148 162.691 134.079C162.75 134.01 162.829 133.98 162.928 133.98H163.746C163.835 133.98 163.913 134.01 163.982 134.079C164.051 134.148 164.081 134.217 164.081 134.305V140.809C164.081 141.37 164.199 141.862 164.426 142.265C164.653 142.668 164.988 142.983 165.402 143.2C165.825 143.416 166.298 143.524 166.831 143.524C167.659 143.524 168.339 143.288 168.851 142.806C169.364 142.334 169.62 141.665 169.62 140.819V134.315C169.62 134.236 169.649 134.158 169.709 134.089C169.768 134.02 169.847 133.99 169.935 133.99H170.753C170.842 133.99 170.921 134.02 170.99 134.089C171.059 134.158 171.088 134.226 171.088 134.315V140.838C171.088 141.724 170.901 142.472 170.537 143.092C170.162 143.711 169.659 144.184 169.019 144.518C168.378 144.853 167.649 145.01 166.821 145.01C165.993 145.01 165.264 144.843 164.623 144.518L164.643 144.508Z" fill="#FDF9F0"/>
<path d="M174.035 144.666C173.976 144.607 173.946 144.528 173.946 144.449V134.295C173.946 134.217 173.976 134.138 174.035 134.079C174.094 134.02 174.173 133.99 174.252 133.99H178.933C179.495 133.99 180.008 134.118 180.461 134.364C180.914 134.61 181.269 134.964 181.535 135.417C181.801 135.87 181.93 136.361 181.93 136.893C181.93 137.316 181.851 137.7 181.703 138.034C181.555 138.379 181.328 138.674 181.013 138.93C180.954 138.979 180.924 139.038 180.924 139.087C180.924 139.146 180.954 139.195 181.013 139.244C181.348 139.49 181.614 139.815 181.811 140.228C182.008 140.642 182.107 141.074 182.107 141.537C182.107 142.147 181.969 142.688 181.693 143.18C181.417 143.662 181.043 144.046 180.56 144.321C180.086 144.597 179.544 144.735 178.933 144.735H174.252C174.173 144.735 174.094 144.705 174.035 144.646V144.666ZM179.673 138.26C179.899 138.123 180.077 137.936 180.215 137.709C180.353 137.483 180.412 137.227 180.412 136.952C180.412 136.519 180.264 136.155 179.978 135.84C179.692 135.525 179.337 135.378 178.933 135.378H175.563C175.563 135.378 175.484 135.387 175.454 135.417C175.425 135.446 175.405 135.486 175.405 135.535V138.319C175.405 138.418 175.454 138.477 175.563 138.477H178.933C179.199 138.477 179.446 138.408 179.673 138.27V138.26ZM179.742 143.091C180.008 142.934 180.205 142.718 180.353 142.442C180.5 142.167 180.579 141.871 180.579 141.557C180.579 141.242 180.5 140.947 180.353 140.681C180.205 140.415 179.998 140.209 179.742 140.051C179.485 139.894 179.199 139.815 178.884 139.815H175.553C175.553 139.815 175.474 139.825 175.444 139.854C175.415 139.884 175.395 139.923 175.395 139.972V143.17C175.395 143.17 175.415 143.249 175.444 143.278C175.474 143.308 175.513 143.328 175.553 143.328H178.884C179.19 143.328 179.475 143.249 179.742 143.091Z" fill="#FDF9F0"/>
</g>
<defs>
<clipPath id="clip0_493_2875">
<rect width="253" height="145" fill="white"/>
</clipPath>
<clipPath id="clip1_493_2875">
<rect width="241.763" height="110.393" fill="white" transform="translate(3.56348 2.71289)"/>
</clipPath>
</defs>
</svg>
