<?xml version="1.0" encoding="UTF-8"?>
<svg id="Layer_2" data-name="Layer 2" xmlns="http://www.w3.org/2000/svg" width="256.7" height="117.62" viewBox="0 0 256.7 117.62">
  <defs>
    <style>
      .cls-1 {
        fill: #46519C;
        stroke-width: 0px;
      }
    </style>
  </defs>
  <g id="matte">
    <g>
      <path class="cls-1" d="M155.22,17.73c-1.49-.51-3.07-.74-4.3-1.54-4.16-2.71-3.8-8.86.66-11.54,3.71-2.23,7.82-3.43,12.07-4.13,6.53-1.09,12.9-.66,18.61,2.92,7.63,4.78,10.82,12.03,10.17,20.82-1.01,13.62-11.11,24.63-25.67,27.47-2.8.55-5.29.01-8-1.47-.17-.09-.42.97-1.05,1.23-2.73,1.37-5.37,1.14-7.72-.77-2.29-1.86-2.94-4.46-2.24-7.2,1.6-6.3,3.35-12.56,5.12-18.81.69-2.45,1.6-4.83,2.33-6.98ZM162.83,38.62c1.24-.24,2.19-.37,3.12-.6,7.68-1.92,13.24-9.2,12.72-16.67-.26-3.82-3.13-7.03-6.79-7.61-.91-.14-1.63-.19-1.66,1.12-.02.81-.36,1.62-.63,2.41-1.87,5.53-3.79,11.05-5.63,16.59-.49,1.47-.73,3.02-1.14,4.76Z"/>
      <path class="cls-1" d="M126.27,33.72c1.8-5.6,3.54-10.98,5.25-16.38.98-3.08,2.8-5.22,6.16-5.69,4.21-.58,8.17,3.34,7.29,7.53-.69,3.3-1.85,6.52-2.87,9.75-2.49,7.88-5,15.76-7.56,23.61-.5,1.54-1.21,3.02-1.98,4.45-1.68,3.15-4.18,5.16-7.95,4.79-3.64-.35-5.8-2.7-6.79-5.99-1.47-4.89-2.65-9.86-3.95-14.8-.14-.54-.26-1.08-.47-1.99-.66,1.91-1.25,3.49-1.76,5.1-1.25,3.99-2.48,7.98-3.69,11.98-.96,3.18-2.75,5.54-6.25,5.96-4.78.56-8.55-3.74-7.25-8.42,1.37-4.96,2.9-9.9,4.63-14.75,2.56-7.17,5.3-14.27,8.07-21.36.88-2.25,2.39-4.13,4.67-5.17,4.13-1.89,9.09.48,10.38,5.11,1.35,4.83,2.46,9.72,3.67,14.59.12.49.23.99.39,1.69Z"/>
      <path class="cls-1" d="M67.17,89.9c-4.12-.37-6.2-1.83-7.08-4.82-1.09-3.68,1.28-8.04,5.05-8.37,4.04-.35,8.19-.27,12.22.18,3.72.42,5.82,3.33,6.08,7.1.21,3-.7,5.72-1.99,8.31-3.74,7.5-9.26,12.96-17.8,14.49-10.78,1.93-18.79-3.36-21.35-14.01-1.33-5.54-.54-11.02,1.08-16.39,2.21-7.35,6.13-13.58,12.55-17.95,6.4-4.36,13.29-5.52,20.46-2.01,4.82,2.36,7.25,6.95,6.75,11.98-.34,3.38-2.91,5.88-6.35,6.16-3.09.26-5.68-1.62-6.57-4.86-.37-1.36-1.15-1.94-2.53-1.79-2.41.26-4.29,1.54-5.86,3.23-4.07,4.37-6.08,9.62-6.31,15.55-.04,1.14.17,2.32.45,3.44.68,2.66,2.32,3.82,5.04,3.51,2.51-.29,4.53-1.53,6.16-3.75Z"/>
      <path class="cls-1" d="M208.66,98.22c-6.04-.83-10.34-2.04-11.2-3.79-1.69-3.44.21-7.16,3.92-7.9,3.98-.79,6.93.02,11.86.96,4.98,1.31,6.89,2.52,7.56,6.24.53,2.96.52,4.78-1.65,8.73-4.26,6.97-7.48,12.21-15.8,14.66-7.63,1.97-20.67-1.86-24.18-11.21-2-5.33-1.18-12.88-.16-18.39,1.4-7.54,5.33-14.6,11.24-19.64,5.88-5.03,12.59-5.44,20.09-2.74,5.05,1.82,7.96,6.12,8.01,11.17.03,3.39-2.26,6.16-5.64,6.82-3.04.59-5.83-.99-7.06-4.12-.52-1.31-1.35-1.8-2.71-1.5-2.36.52-4.09,2-5.48,3.85-3.57,4.79-5,10.23-4.58,16.15.08,1.14.42,2.29.83,3.37.96,2.57,3.26,4.02,5.93,3.41,4.93-1.41,6.81-3.47,9-6.07Z"/>
      <path class="cls-1" d="M230.89,32.83c2.84-.29,5.51-.65,8.18-.81,1.66-.1,3.4-.17,4.99.21,3.12.74,5.05,3.76,4.73,6.86-.36,3.47-3.03,6.06-6.64,6.13-4.73.09-9.36.65-13.9,2-.94.28-1.56.61-1.6,1.74-.04,1.14-.32,2.27-.56,3.78,2.02-.22,3.83-.25,5.56-.63,3.71-.83,7.41-1.76,11.06-2.82,2.54-.74,4.92-.96,7.15.76,4.18,3.23,3.28,9.83-1.81,11.64-4.1,1.46-8.36,2.54-12.63,3.38-3.58.7-7.28,1.08-10.93,1.1-5.68.03-10.26-3.31-11.34-8.14-.52-2.33-.83-4.84-.56-7.19,1.06-9.19,3.76-17.97,7.06-26.59,2.15-5.61,6.57-7.89,12.04-8.87,6.02-1.07,12.09-1.57,18.21-1.43,4.01.09,6.8,2.92,6.79,6.8,0,3.61-3.04,6.5-6.92,6.61-3.26.09-6.52.12-9.77.33-1.85.12-3.67.6-5.51.83-1.51.18-2.47.92-2.91,2.37-.19.64-.46,1.26-.71,1.95Z"/>
      <path class="cls-1" d="M17.7,49.11c-1.39,4.47-2.61,8.61-3.98,12.7-.48,1.42-1.11,2.9-2.06,4.03-2.13,2.55-5.27,2.95-8.21,1.35-2.56-1.39-4.08-4.63-3.21-7.52,1.23-4.09,2.72-8.1,4.04-12.16,2.52-7.73,5-15.47,7.48-23.2.26-.79.4-1.62.65-2.42,1.17-3.85,5.02-5.95,8.66-4.73,3.7,1.24,5.51,5.08,4.22,8.91-.81,2.41-1.58,4.83-2.47,7.56,3.06-1.51,5.27-3.49,7.17-5.76,1.82-2.17,3.51-4.46,5.09-6.81,3.1-4.62,9.3-4.49,11.87.37,1.23,2.32,1,4.68-.39,6.9-3.32,5.3-7.46,9.87-12.35,13.76-1.05.84-2.13,1.64-3.44,2.64,2.57,3.62,5.13,7.15,7.6,10.73,1.02,1.47,2.25,2.96,2.69,4.63.85,3.25-.83,6.28-3.7,7.65-2.79,1.33-6.21.61-8.23-2.14-3.57-4.87-6.92-9.91-10.36-14.87-.29-.41-.56-.84-1.08-1.61Z"/>
      <path class="cls-1" d="M76.19,39.47c-4.05.15-7.86.26-11.67.47-.42.02-.97.5-1.2.91-1.24,2.23-2.42,4.5-3.56,6.78-1.88,3.76-5.52,5.16-9.06,3.46-3.46-1.66-4.74-5.72-2.96-9.4,5.43-11.22,11.82-21.85,19.76-31.47,2.14-2.6,4.64-5,7.34-7.02,6.65-4.97,14.45-1.85,15.68,6.38.68,4.52.72,9.19.54,13.77-.29,7.25-1.01,14.48-1.55,21.72-.4,5.35-5.88,8.35-10.38,5.68-2.56-1.52-3.75-4.57-3.23-8.19.14-.96.19-1.93.31-3.08ZM77.42,25.91c.13-2.41.25-4.68.37-6.95-.12-.04-.24-.09-.36-.13-1.72,2.37-3.44,4.75-5.34,7.36,2.01-.11,3.62-.19,5.33-.28Z"/>
      <path class="cls-1" d="M190.43,49.63c.32-1.21.77-3.2,1.36-5.14,3.21-10.72,6.46-21.43,9.68-32.15.88-2.93,2.53-5.09,5.67-5.7,4.77-.94,8.99,3.39,7.75,8.16-1.34,5.16-3.05,10.23-4.57,15.35-2.15,7.26-4.27,14.52-6.42,21.78-.86,2.91-2.66,4.93-5.79,5.32-4.37.55-7.63-2.4-7.67-7.62Z"/>
      <path class="cls-1" d="M159.11,81.11c1.65-5.64,3.24-11.07,4.81-16.51.89-3.11,3.15-3.98,6.5-4.54,4.19-.7,8.34,3.19,7.58,7.39-.6,3.32-1.01,5.13-1.95,8.38-2.28,7.94-3.28,13.45-5.63,21.38-.46,1.55-2.79,6.31-3.51,7.76-1.6,3.2-4.92,4.48-8.7,4.22-3.65-.25-5.87-2.55-6.94-5.81-1.6-4.85-2.92-9.79-4.35-14.69-.16-.53-.29-1.07-.53-1.98-.61,1.93-1.16,3.53-1.62,5.15-1.15,4.02-2.27,8.04-3.37,12.07-.88,3.21-2.6,5.61-6.09,6.12-4.76.69-8.87-5.28-7.7-9.99.36-6.62,1.59-9.33,2.57-14.26,2.36-7.23,3.09-11.57,5.67-18.73.82-2.27,3.26-6,5.5-7.11,4.07-2,8.79-.78,11.5,4.15,2.96,5.24,4.47,10.47,5.82,15.3.14.49.25.98.43,1.68Z"/>
      <path class="cls-1" d="M108.57,103.92c-4.41-.81-6.69-.41-10.48-.06-.42.04-.95.53-1.16.95-1.15,2.28-2.39,3.88-3.45,6.2-1.74,3.82-5.37,5.6-8.98,4.02-3.52-1.54-5.65-4.5-4-8.24,5.02-11.41,8.63-19.29,16.21-29.19,2.05-2.67,5.15-8.04,7.77-10.15,6.47-5.21,15.8-2.12,17.33,6.07.84,4.49,1.59,7.41,1.57,11.99.26,7.14.28,14.54-1.31,23.51-.21,5.36-6.12,6.6-10.37,4.91-2.61-1.42-3.71-3.28-3.33-6.92.1-.96.12-1.93.2-3.09ZM110.27,91.42c.04-2.41-.87-5.78-.83-8.05-.12-.04-.12-1.24-.24-1.28-3.09,3.32-5.27,6.45-7.07,9.13,2.01-.18,6.44.35,8.15.2Z"/>
    </g>
  </g>
</svg>