<?xml version="1.0" encoding="UTF-8"?>
<svg id="Layer_2" data-name="Layer 2" xmlns="http://www.w3.org/2000/svg" width="51.42" height="50.27" viewBox="0 0 51.42 50.27">
  <defs>
    <style>
      .cls-1 {
        fill: #47509b;
        stroke-width: 0px;
      }
    </style>
  </defs>
  <g id="matte">
    <path class="cls-1" d="M1.07,8.12C3.26,1.68,8.8-1.32,15.34.55c4.82,1.37,8.67,4.27,11.84,8.1.59.71,1.07,1.5,1.59,2.25,1.17-1,2.28-1.99,3.43-2.93,2.33-1.92,5.03-2.63,8-2.32,4.32.45,7.79,2.34,9.84,6.28,1.52,2.94,1.65,6.11,1.06,9.34-.79,4.35-3.01,7.98-5.63,11.44-3.49,4.61-7.95,8.16-12.53,11.58-2.47,1.84-5,3.6-7.54,5.32-1.29.88-2.55.89-3.96-.1-3.8-2.66-7.14-5.75-10.08-9.35-4.02-4.93-7.23-10.27-9.48-16.23C-.08,18.72-.76,13.5,1.07,8.12Z"/>
  </g>
</svg>